# xmcd CD database file generated by Grip 3.3.1
# 
# Track frame offsets:
#       150
#       27890
#       60320
#       102380
#       142014
#       175682
#       200047
# 
# Disc length: 3071 seconds
# 
# Revision: 1
# Processed by: cddbd v1.5.2PL0 Copyright (c) Steve Scherf et al.
# Submitted via: Grip 3.3.1
# 
DISCID=5d0bfd07
DTITLE=Vienna Philharmonia Quintet, Eduard Mrazek (piano), Wolfgang Podu
DTITLE=schka (viool) - Berwald - Piano Quintets
DYEAR=1973
DGENRE=Classical
TTITLE0=I. Allegro molto - Piano Quintet No.1 in C major, Op.5
TTITLE1=II. Adagio quasi andante - Piano Quintet No.1 in C major, Op.5
TTITLE2=III. Allegro assai e con spirito - Piano Quintet No.1 in C major,
TTITLE2=Op.5
TTITLE3=I. Allegro con giusto - Piano Quintet No.2 in A major, Op.6
TTITLE4=II. Allegro vivace - Piano Quintet No.2 in A major, Op.6
TTITLE5=III. Poco andante con grazia - Piano Quintet No.2 in A major, Op.
TTITLE5=6
TTITLE6=IV. Allegro molto - Piano Quintet No.2 in A major, Op.6
EXTD=
EXTT0=
EXTT1=
EXTT2=
EXTT3=
EXTT4=
EXTT5=
EXTT6=
PLAYORDER=
